# xmcd CD database file
#
# Track frame offsets:
#	150
#	13295
#	24845
#	38331
#	49326
#	63449
#	76995
#	88242
#	101545
#	115030
#	129663
#	147817
#	163128
#	177376
#
# Disc length: 2526 seconds
#
# Revision: 0
# Processed by: cddbd v1.5.2PL0 Copyright (c) Steve Scherf et al.
# Submitted via: CDex 1.70beta2
#
DISCID=b409dc0e
DTITLE=Varios - Los grandes del Jazz cd4
DYEAR=2005
DGENRE=Jazz
TTITLE0=Billie Holliday - I only have eyes for you
TTITLE1=Benny Goodman Cuartet - Nice work if you can get it
TTITLE2=Jack Teagarden - My melancholy baby
TTITLE3=Louis Armstrong - Dippermounth blues
TTITLE4=Tommy Dorsey and Orchestra /Boogie woogie
TTITLE5=Colema Hawkins - Avalon
TTITLE6=Ella Fitsgerald - Flying home
TTITLE7=Fletcher Henderson - King porter stomp
TTITLE8=King Oliver - Black snake blues
TTITLE9=Lester Youg - Takin' a chance of love
TTITLE10=Meade Lux Lewwis - Chicago flyer
TTITLE11=Charlie Parker - Loverman
TTITLE12=Sidney Bechet - Indian Summer
TTITLE13=Fats waller and his rhythm - Alligator crawl
EXTD=YEAR: 2005
EXTT0=
EXTT1=
EXTT2=
EXTT3=
EXTT4=
EXTT5=
EXTT6=
EXTT7=
EXTT8=
EXTT9=
EXTT10=
EXTT11=
EXTT12=
EXTT13=
PLAYORDER=
